<?xml version="1.0" encoding="UTF-8" standalone="no"?>
<!-- Created with Inkscape (http://www.inkscape.org/) -->

<svg
   xmlns:osb="http://www.openswatchbook.org/uri/2009/osb"
   xmlns:dc="http://purl.org/dc/elements/1.1/"
   xmlns:cc="http://creativecommons.org/ns#"
   xmlns:rdf="http://www.w3.org/1999/02/22-rdf-syntax-ns#"
   xmlns:svg="http://www.w3.org/2000/svg"
   xmlns="http://www.w3.org/2000/svg"
   xmlns:xlink="http://www.w3.org/1999/xlink"
   xmlns:sodipodi="http://sodipodi.sourceforge.net/DTD/sodipodi-0.dtd"
   xmlns:inkscape="http://www.inkscape.org/namespaces/inkscape"
   width="297mm"
   height="210mm"
   viewBox="0 0 1052.3622 744.09448"
   id="svg2"
   version="1.1"
   inkscape:version="0.91 r13725"
   sodipodi:docname="lure_logo_current_annot.svg">
  <sodipodi:namedview
     id="base"
     pagecolor="#ffffff"
     bordercolor="#666666"
     borderopacity="1.0"
     inkscape:pageopacity="0.0"
     inkscape:pageshadow="2"
     inkscape:zoom="0.90509668"
     inkscape:cx="362.79488"
     inkscape:cy="354.92849"
     inkscape:document-units="px"
     inkscape:current-layer="layer1"
     showgrid="false"
     inkscape:window-width="2509"
     inkscape:window-height="1395"
     inkscape:window-x="51"
     inkscape:window-y="1"
     inkscape:window-maximized="1" />
  <defs
     id="defs4">
    <linearGradient
       id="linearGradient6852"
       inkscape:collect="always">
      <stop
         id="stop6854"
         offset="0"
         style="stop-color:#6ad2e0;stop-opacity:1" />
      <stop
         id="stop6856"
         offset="1"
         style="stop-color:#4fc8de;stop-opacity:1" />
    </linearGradient>
    <linearGradient
       id="linearGradient6375"
       inkscape:collect="always">
      <stop
         id="stop6377"
         offset="0"
         style="stop-color:#03629f;stop-opacity:1" />
      <stop
         id="stop6379"
         offset="1"
         style="stop-color:#0f4d7c;stop-opacity:1" />
    </linearGradient>
    <linearGradient
       id="linearGradient6367"
       inkscape:collect="always">
      <stop
         id="stop6369"
         offset="0"
         style="stop-color:#0491cf;stop-opacity:1" />
      <stop
         id="stop6371"
         offset="1"
         style="stop-color:#016ea1;stop-opacity:1" />
    </linearGradient>
    <linearGradient
       id="linearGradient6359"
       inkscape:collect="always">
      <stop
         id="stop6361"
         offset="0"
         style="stop-color:#64adbf;stop-opacity:1" />
      <stop
         id="stop6363"
         offset="1"
         style="stop-color:#0495be;stop-opacity:1" />
    </linearGradient>
    <linearGradient
       inkscape:collect="always"
       id="linearGradient6353">
      <stop
         style="stop-color:#80dbe1;stop-opacity:1"
         offset="0"
         id="stop6355" />
      <stop
         style="stop-color:#11afda;stop-opacity:1"
         offset="1"
         id="stop6357" />
    </linearGradient>
    <linearGradient
       inkscape:collect="always"
       id="linearGradient6325">
      <stop
         style="stop-color:#0277ad;stop-opacity:1"
         offset="0"
         id="stop6327" />
      <stop
         style="stop-color:#66d1e0;stop-opacity:1"
         offset="1"
         id="stop6329" />
    </linearGradient>
    <linearGradient
       id="linearGradient6282"
       inkscape:collect="always">
      <stop
         id="stop6284"
         offset="0"
         style="stop-color:#65d0e0;stop-opacity:1" />
      <stop
         id="stop6286"
         offset="1"
         style="stop-color:#1588b7;stop-opacity:1" />
    </linearGradient>
    <marker
       inkscape:stockid="Scissors"
       orient="auto"
       refY="0.0"
       refX="0.0"
       id="marker6248"
       style="overflow:visible"
       inkscape:isstock="true">
      <path
         id="path6250"
         d="M 9.0898857,-3.6061018 C 8.1198849,-4.7769976 6.3697607,-4.7358294 5.0623558,-4.2327734 L -3.1500488,-1.1548705 C -5.5383421,-2.4615840 -7.8983361,-2.0874077 -7.8983361,-2.7236578 C -7.8983361,-3.2209742 -7.4416699,-3.1119800 -7.5100293,-4.4068519 C -7.5756648,-5.6501286 -8.8736064,-6.5699315 -10.100428,-6.4884954 C -11.327699,-6.4958500 -12.599867,-5.5553341 -12.610769,-4.2584343 C -12.702194,-2.9520479 -11.603560,-1.7387447 -10.304005,-1.6532027 C -8.7816644,-1.4265411 -6.0857470,-2.3487593 -4.8210600,-0.082342643 C -5.7633447,1.6559151 -7.4350844,1.6607341 -8.9465707,1.5737277 C -10.201445,1.5014928 -11.708664,1.8611256 -12.307219,3.0945882 C -12.885586,4.2766744 -12.318421,5.9591904 -10.990470,6.3210002 C -9.6502788,6.8128279 -7.8098011,6.1912892 -7.4910978,4.6502760 C -7.2454393,3.4624530 -8.0864637,2.9043186 -7.7636052,2.4731223 C -7.5199917,2.1477623 -5.9728246,2.3362771 -3.2164999,1.0982979 L 5.6763468,4.2330688 C 6.8000164,4.5467672 8.1730685,4.5362646 9.1684433,3.4313614 L -0.051640930,-0.053722219 L 9.0898857,-3.6061018 z M -9.2179159,-5.5066058 C -7.9233569,-4.7838060 -8.0290767,-2.8230356 -9.3743431,-2.4433169 C -10.590861,-2.0196559 -12.145370,-3.2022863 -11.757521,-4.5207817 C -11.530373,-5.6026336 -10.104134,-6.0014137 -9.2179159,-5.5066058 z M -9.1616516,2.5107591 C -7.8108215,3.0096239 -8.0402087,5.2951947 -9.4138723,5.6023681 C -10.324932,5.9187072 -11.627422,5.4635705 -11.719569,4.3902287 C -11.897178,3.0851737 -10.363484,1.9060805 -9.1616516,2.5107591 z "
         style="fill:#000000;stroke:#000000;stroke-opacity:1;fill-opacity:1" />
    </marker>
    <marker
       inkscape:stockid="Arrow1Lstart"
       orient="auto"
       refY="0.0"
       refX="0.0"
       id="marker6150"
       style="overflow:visible"
       inkscape:isstock="true">
      <path
         id="path6152"
         d="M 0.0,0.0 L 5.0,-5.0 L -12.5,0.0 L 5.0,5.0 L 0.0,0.0 z "
         style="fill-rule:evenodd;stroke:#000000;stroke-width:1pt;stroke-opacity:1;fill:#000000;fill-opacity:1"
         transform="scale(0.8) translate(12.5,0)" />
    </marker>
    <linearGradient
       osb:paint="solid"
       id="linearGradient4287">
      <stop
         id="stop4289"
         offset="0"
         style="stop-color:#000000;stop-opacity:1;" />
    </linearGradient>
    <clipPath
       id="clipPath3422"
       clipPathUnits="userSpaceOnUse">
      <rect
         y="-903.29309"
         x="-157.5838"
         height="3006.2139"
         width="1640.4877"
         id="rect3424"
         style="fill:#0000ff;fill-rule:evenodd;stroke:#000000;stroke-width:1px;stroke-linecap:butt;stroke-linejoin:miter;stroke-opacity:1" />
    </clipPath>
    <linearGradient
       gradientTransform="translate(-66,0)"
       gradientUnits="userSpaceOnUse"
       y2="670.36689"
       x2="858.21399"
       y1="670.36689"
       x1="761.33015"
       id="linearGradient6288"
       xlink:href="#linearGradient6282"
       inkscape:collect="always" />
    <linearGradient
       gradientTransform="translate(-66,0)"
       gradientUnits="userSpaceOnUse"
       y2="623.39917"
       x2="859.20917"
       y1="623.39917"
       x1="164.13429"
       id="linearGradient6290"
       xlink:href="#linearGradient6325"
       inkscape:collect="always" />
    <clipPath
       id="clipPath6321"
       clipPathUnits="userSpaceOnUse">
      <rect
         y="1240.9321"
         x="609.74139"
         height="84.234291"
         width="272.80423"
         id="rect6323"
         style="fill:#0000ff;fill-opacity:1;stroke-width:0;stroke-linecap:square;stroke-linejoin:miter;stroke-miterlimit:4;stroke-dasharray:none;stroke-dashoffset:0" />
    </clipPath>
    <linearGradient
       gradientUnits="userSpaceOnUse"
       y2="793.85754"
       x2="698.59644"
       y1="793.85754"
       x1="495.13007"
       id="linearGradient6351"
       xlink:href="#linearGradient6353"
       inkscape:collect="always" />
    <linearGradient
       gradientUnits="userSpaceOnUse"
       y2="811.36468"
       x2="698.18109"
       y1="811.36468"
       x1="474.38177"
       id="linearGradient6365"
       xlink:href="#linearGradient6359"
       inkscape:collect="always" />
    <linearGradient
       gradientUnits="userSpaceOnUse"
       y2="817.00754"
       x2="608.11101"
       y1="817.00754"
       x1="417.23713"
       id="linearGradient6373"
       xlink:href="#linearGradient6367"
       inkscape:collect="always" />
    <linearGradient
       gradientTransform="translate(-0.46051071,-2.2742097)"
       gradientUnits="userSpaceOnUse"
       y2="831.70633"
       x2="673.00574"
       y1="831.70633"
       x1="573.75783"
       id="linearGradient6381"
       xlink:href="#linearGradient6375"
       inkscape:collect="always" />
    <linearGradient
       gradientUnits="userSpaceOnUse"
       y2="788.77146"
       x2="564.73244"
       y1="788.77146"
       x1="423.81541"
       id="linearGradient6858"
       xlink:href="#linearGradient6852"
       inkscape:collect="always" />
  </defs>
  <metadata
     id="metadata7">
    <rdf:RDF>
      <cc:Work
         rdf:about="">
        <dc:format>image/svg+xml</dc:format>
        <dc:type
           rdf:resource="http://purl.org/dc/dcmitype/StillImage" />
        <dc:title />
      </cc:Work>
    </rdf:RDF>
  </metadata>
  <g
     transform="translate(0,-308.26772)"
     id="layer1"
     inkscape:groupmode="layer"
     inkscape:label="Layer 1">
    <g
       id="g4216">
      <path
         inkscape:export-ydpi="90"
         inkscape:export-xdpi="90"
         style="fill:none;fill-rule:evenodd;stroke:#000000;stroke-width:1px;stroke-linecap:butt;stroke-linejoin:miter;stroke-opacity:1"
         d="M 141.08127,587.69203 Z"
         id="path3430"
         inkscape:connector-curvature="0" />
      <path
         inkscape:export-ydpi="90"
         inkscape:export-xdpi="90"
         sodipodi:nodetypes="cccscccccscccccssssssssssscccscsssssscsssscssssccsccssssccsssccssssssccccsscsccccssssssccsssccssscccccscccccscccscccccccccccccccccsscccccccccsscccccsssssccccccc"
         inkscape:connector-curvature="0"
         style="color:#000000;font-style:normal;font-variant:normal;font-weight:normal;font-stretch:normal;font-size:medium;line-height:normal;font-family:sans-serif;text-indent:0;text-align:start;text-decoration:none;text-decoration-line:none;text-decoration-style:solid;text-decoration-color:#000000;letter-spacing:normal;word-spacing:normal;text-transform:none;direction:ltr;block-progression:tb;writing-mode:lr-tb;baseline-shift:baseline;text-anchor:start;white-space:normal;clip-rule:nonzero;display:inline;overflow:visible;visibility:visible;opacity:1;isolation:auto;mix-blend-mode:normal;color-interpolation:sRGB;color-interpolation-filters:linearRGB;solid-color:#000000;solid-opacity:1;fill:url(#linearGradient6290);fill-opacity:1;fill-rule:evenodd;stroke:none;stroke-width:4;stroke-linecap:square;stroke-linejoin:miter;stroke-miterlimit:4;stroke-dasharray:none;stroke-dashoffset:0;stroke-opacity:1;color-rendering:auto;image-rendering:auto;shape-rendering:auto;text-rendering:auto;enable-background:accumulate"
         d="m 354.20508,500.97266 c -6.77431,-0.154 -12.58415,1.40722 -18.56641,5.55078 -28.62979,27.60982 -47.78123,54.2514 -69.57422,83.79883 -1.55417,2.10855 -2.79189,3.80516 -3.65625,5.00585 -0.43218,0.60035 -0.76902,1.07571 -1.01172,1.42383 -0.12134,0.17406 -0.21951,0.314 -0.29882,0.4336 -0.0793,0.11959 -0.0636,-0.0128 -0.28321,0.49804 l 0.20313,-0.36132 c 0,0 -3.89505,6.04753 -6.02735,9.24218 -9.99598,4.02584 -17.89303,7.27897 -28.03744,11.35407 -37.32369,14.99327 -75.15707,26.15727 -109.85789,2.86067 -14.98712,-16.34135 3.4966,-47.29485 23.3719,-41.24403 0.90109,0.28473 1.12862,1.63865 1.23437,1.81836 -0.22328,7.06755 -8.23912,4.98313 -4.42578,11.00195 l 1.70313,-1.05078 c 0,0 4.24756,-2.36189 5.91992,-6.53516 0.69307,-1.72953 1.63812,-4.15884 0.25,-6.51758 -0.69406,-1.17936 -1.93355,-2.04173 -3.47656,-2.52929 -1.54302,-0.48757 -3.44701,-0.68381 -5.9375,-0.61914 -2.84675,0.0739 -6.53838,1.12384 -10.71094,2.85546 -4.17256,1.73163 -8.74714,4.1731 -12.94336,7.16016 -4.19623,2.98706 -8.0199,6.51008 -10.63086,10.51172 -2.610965,4.00164 -4.002175,8.59938 -2.974611,13.32617 1.871851,8.61049 5.958621,14.35966 11.244141,18.33399 5.28552,3.97432 11.65287,6.24646 18.2832,8.49218 4.73302,1.6031 11.63208,2.55493 17.46875,3.17188 5.83668,0.61695 10.57032,0.85937 10.57032,0.85937 l 0.0176,0 0.0176,0.002 c 0,0 21.72085,0.73007 47.39453,-6.50196 17.48386,-4.92502 36.25815,-14.14888 46.95703,-19.7539 -7.30105,11.5554 -16.47478,27.0296 -24.90039,45.31054 -7.47147,16.21079 -13.57247,33.2404 -14.95703,48.09766 -0.69228,7.42863 -0.20557,14.33909 2.00391,20.32422 2.20948,5.98512 6.20808,11.01659 12.23047,14.41015 11.96822,6.744 25.64739,4.63123 38.93554,-1.97851 13.28816,-6.60974 26.45922,-17.71004 38.19922,-29.5625 10.20333,-10.30106 18.94348,-20.87509 25.9961,-29.89649 -1.94191,5.29204 -3.22978,10.51866 -1.91016,14.85743 0.68558,2.2541 2.25269,4.24887 4.59375,5.32031 2.34106,1.07144 5.30069,1.30738 9.01758,0.7832 14.80201,-2.08747 27.53314,-13.64398 36.69531,-24.48437 1.93374,-2.28795 3.6142,-4.50321 5.21289,-6.6543 -0.73459,3.71239 -1.15863,7.38718 -1.03125,10.83594 0.31767,8.60025 3.33327,16.15669 9.59961,19.49609 3.37341,1.79773 7.60495,1.62523 11.9707,0.21875 4.36576,-1.40648 8.95978,-4.10022 13.23047,-7.84179 8.22239,-7.20368 15.20751,-18.38971 16.24219,-31.91016 0.0355,-0.002 0.0374,-0.006 0.0742,-0.008 1.04887,-0.0591 2.64599,-0.0751 4.54883,-0.0664 3.80567,0.0174 8.86646,0.1311 13.76953,0.14453 1.95518,0.005 3.34587,-0.15069 5.16601,-0.18945 -2.96125,2.86502 -5.69494,6.37854 -7.48632,10.31836 -1.91541,4.21259 -2.7992,8.90291 -1.5586,13.43945 1.2406,4.53654 4.64014,8.72856 10.57031,11.84766 7.71952,4.06024 16.70643,3.80704 25.50782,1.0957 5.3837,-1.6585 10.70442,-4.30438 15.78711,-7.44727 2.73166,15.34038 17.36925,22.22511 17.59961,22.33008 0.82853,0.43776 1.88532,0.77749 3.52539,1.16016 1.65726,0.38668 3.81273,0.75326 6.42773,0.97851 5.23,0.45051 12.29187,0.33117 20.73633,-1.38085 16.88893,-3.42405 39.28468,-13.23794 63.49219,-37.45508 l 27.12695,-27.13672 c 33.98375,-33.99728 68.42449,-44.53206 95.64258,-45.64453 13.60904,-0.55624 25.41392,1.26117 34.39648,3.7207 8.98256,2.45953 15.26365,5.72281 17.25977,7.39844 1.55059,1.30163 3.21347,3.46223 4.17187,5.79297 0.95841,2.33073 1.22337,4.75 0.41016,6.86914 -0.81321,2.11913 -2.71529,4.18662 -6.93359,5.75781 -4.21831,1.57119 -10.70135,2.51779 -20.08204,2.15234 l -0.31445,-0.0117 c 1.40072,-1.13985 2.84519,-2.54163 3.14844,-4.54882 l 0.19921,-3.09961 c 0,0 -1.52464,2.36625 -2.05078,3.16211 -0.53156,0.80406 -1.20442,1.32553 -1.86132,1.8789 -0.85284,0.71843 -2.68946,1.50391 -2.68946,1.50391 -1.27094,0.36966 -2.02006,0.3983 -3.79687,0.54492 -1.66017,0.13699 -3.4835,9.8e-4 -4.7168,0.0488 -0.4373,0.017 -0.7341,0.0115 -1.04297,0.01 l -7.25976,-0.2832 c 5.49539,5.68162 13.2433,4.52135 20.22851,4.79084 9.71472,0.37846 16.66845,-0.55059 21.63477,-2.40039 4.96632,-1.84981 7.99535,-4.74875 9.27148,-8.07422 1.27614,-3.32547 0.78673,-6.82608 -0.44531,-9.82227 -1.23204,-2.99619 -3.19467,-5.56962 -5.29883,-7.33594 -3.01983,-2.53497 -9.41637,-5.62879 -18.77539,-8.1914 -9.35901,-2.56261 -21.55935,-4.43396 -35.61718,-3.85938 -28.11567,1.14917 -63.65928,12.1494 -98.3086,46.8125 -36.377,39.03042 -119.24197,85.74909 -132.36324,41.98243 1.92175,-1.32433 3.80088,-2.71226 5.60742,-4.16211 7.58309,-6.08586 14.01787,-13.08934 18.16797,-19.64649 2.07505,-3.27857 3.58566,-6.44362 4.34961,-9.41211 0.7636,-2.96709 0.79747,-5.82367 -0.41601,-8.24219 -0.37552,-0.75103 -1.12506,-1.37627 -1.88477,-1.6289 -0.75971,-0.25264 -1.48251,-0.22883 -2.16992,-0.11133 -1.37483,0.23501 -2.72874,0.87176 -4.23828,1.78516 -3.0191,1.8268 -6.56699,4.84916 -10.05274,8.71679 -6.97148,7.73527 -13.70623,18.83223 -13.65625,30.35547 4.9e-4,0.11341 0.0373,0.20377 0.0391,0.31641 -23.48134,17.2378 -58.01737,-1.89633 -38.98242,-22.58399 1.1108,-1.02558 2.23996,-1.79604 3.34766,-2.5332 0.31478,-0.0311 0.84848,-0.005 1.14258,-0.041 1.66736,-0.20476 2.91844,-0.36476 4.13281,-1.09571 0.60718,-0.36547 1.4394,-1.18995 1.43359,-2.34961 -0.006,-1.15965 -0.66576,-1.83908 -1.22851,-2.3125 l -0.75586,-0.63672 -0.96485,0.21485 c -1.70461,0.37783 -3.45379,1.1968 -5.20117,2.2832 -2.88798,0.22913 -6.32861,0.38019 -10.36133,0.36914 -4.84837,-0.0133 -9.89295,-0.12687 -13.76171,-0.14453 -1.93439,-0.009 -3.56573,0.005 -4.79102,0.0742 -0.61264,0.0345 -1.10969,0.0749 -1.5918,0.16797 -0.24105,0.0465 -0.47158,0.0899 -0.82226,0.2539 -0.17534,0.082 -0.39354,0.19005 -0.66016,0.45703 -0.26662,0.26699 -0.59033,0.78998 -0.61523,1.39844 -8.12345,50.90623 -60.60986,40.8313 -36.62696,-3.56449 l 0.0234,-0.041 -3.49023,-1.95312 c -0.008,0.014 -0.0134,0.0289 -0.0215,0.043 l -0.002,-0.002 c -16.22071,21.48646 -69.36372,68.84626 -55.74609,27.41993 3.89068,-10.33193 11.30664,-21.41993 11.30664,-21.41993 l 0.008,-0.0117 -3.32813,-2.21875 -0.008,0.0117 c 0,0 -17.60724,26.57127 -40.73437,49.91993 -78.85025,75.28007 -81.69772,-33.06447 -41.3711,-97.6543 0.33279,-0.18741 1.55078,-0.85352 1.55078,-0.85352 l -0.1875,0.0937 c 38.02924,-27.81089 78.74565,-56.54248 100.9961,-100.24414 0.65961,-1.3615 0.76685,-2.8669 0.27344,-4.0625 -0.49342,-1.1956 -1.40294,-1.94689 -2.2461,-2.4414 -0.84316,-0.49452 -1.67753,-0.76858 -2.35547,-0.94532 -0.33897,-0.0884 -0.63932,-0.14948 -0.88476,-0.1914 -0.24545,-0.0419 -0.32119,-0.0683 -0.66797,-0.0762 z m -0.0899,3.99804 c -0.2413,-0.005 -0.0494,-0.002 0.0859,0.0215 0.13538,0.0231 0.32926,0.0624 0.54688,0.11914 0.43522,0.11346 0.96621,0.30511 1.34179,0.52539 0.37559,0.22028 0.53801,0.43262 0.57227,0.51562 0.0343,0.083 0.12465,0.17285 -0.17578,0.79297 -4.93042,10.17691 -23.41773,32.36072 -43.75195,52.94922 -17.96218,18.18679 -37.63899,35.3767 -50.50586,42.89063 0.28191,-0.40708 2.05859,-3.15821 2.05859,-3.15821 l 0.12109,-0.17187 0.0273,-0.0645 c 0.0497,-0.0747 0.13287,-0.19476 0.24218,-0.35156 0.22224,-0.31876 0.55134,-0.78431 0.97657,-1.375 0.85046,-1.18138 2.08301,-2.86876 3.63086,-4.96875 3.0957,-4.19997 7.4578,-10.04882 12.59765,-16.82226 10.27971,-13.54689 23.67221,-30.79649 36.25977,-45.9668 8.28403,-9.98378 14.36939,-16.35264 19.77344,-20.0957 5.40404,-3.74307 10.05081,-4.97961 16.19921,-4.83985 z m 171.77344,143.48242 c 1.48572,12.27518 -15.58223,27.72448 -24.35348,34.32422 3.12996,-13.50741 9.994,-25.94006 21.60351,-33.10156 1.21847,-0.73727 2.21976,-1.11741 2.75,-1.22266 z"
         id="path5747" />
      <path
         inkscape:export-ydpi="90"
         inkscape:export-xdpi="90"
         sodipodi:nodetypes="csscccssccccccccscsscsc"
         inkscape:connector-curvature="0"
         id="path5770"
         d="m 754.89258,664.26758 c -4.89765,-1.22731 -17.94328,-5.25821 -30.49219,-7.00781 -6.29679,-0.87792 -12.48356,-1.20715 -17.67383,-0.22657 -5.19027,0.98059 -9.66054,3.51595 -11.25586,8.29102 l -0.14062,0.42383 0.0527,0.44336 c 0.53402,4.54384 3.94478,7.93767 8.7793,9.70312 4.83451,1.76545 11.21996,2.21562 18.82031,1.42774 9.12647,-0.94609 20.13531,-3.96815 32.01172,-8.76172 16.25333,5.58407 27.6553,12.38089 32.86914,18.61133 l 1.2832,1.5332 c 9.40117,-7.11592 -25.14826,-21.00258 -28.77148,-22.37891 6.26526,-2.78677 12.67454,-5.92781 19.29688,-9.83594 l 1.72265,-1.01562 c -2.45546,-6.93729 -19.99467,6.06138 -26.50192,8.79297 z m -39.84375,-3.80664 c 2.78172,0.0638 5.7657,0.33883 8.79883,0.76172 9.61142,1.34005 18.61844,3.82683 24.97265,5.56445 -9.79015,3.59021 -18.75347,5.77952 -26.25,6.55664 -7.20476,0.74688 -13.08609,0.23508 -17.03515,-1.20703 -3.72563,-1.36051 -5.56526,-3.29716 -6.05469,-5.95313 1.14422,-2.81992 3.76792,-4.42336 7.98828,-5.2207 2.21936,-0.4193 4.79835,-0.56571 7.58008,-0.50195 z"
         style="color:#000000;font-style:normal;font-variant:normal;font-weight:normal;font-stretch:normal;font-size:medium;line-height:normal;font-family:sans-serif;text-indent:0;text-align:start;text-decoration:none;text-decoration-line:none;text-decoration-style:solid;text-decoration-color:#000000;letter-spacing:normal;word-spacing:normal;text-transform:none;direction:ltr;block-progression:tb;writing-mode:lr-tb;baseline-shift:baseline;text-anchor:start;white-space:normal;clip-rule:nonzero;display:inline;overflow:visible;visibility:visible;opacity:1;isolation:auto;mix-blend-mode:normal;color-interpolation:sRGB;color-interpolation-filters:linearRGB;solid-color:#000000;solid-opacity:1;fill:url(#linearGradient6288);fill-opacity:1;fill-rule:evenodd;stroke:none;stroke-width:4;stroke-linecap:square;stroke-linejoin:miter;stroke-miterlimit:4;stroke-dasharray:none;stroke-dashoffset:0;stroke-opacity:1;color-rendering:auto;image-rendering:auto;shape-rendering:auto;text-rendering:auto;enable-background:accumulate" />
      <g
         inkscape:export-ydpi="90"
         inkscape:export-xdpi="90"
         id="g6339"
         transform="matrix(2.3991936,0,0,1.8510644,-749.31319,-723.73362)">
        <path
           sodipodi:nodetypes="ccscscsssscscscsssssscc"
           inkscape:connector-curvature="0"
           id="path6331"
           d="m 497.52162,793.45566 c 25.10518,1.63425 69.87844,5.8164 94.98362,4.39164 20.47759,-0.91681 41.83522,-2.92998 46.14491,-7.12887 2.47021,-2.40671 5.8752,-8.05561 2.40739,-13.13365 -2.77685,-3.96545 -5.6721,-3.54976 -9.44643,-2.13522 -0.81917,0.30701 -3.48555,1.11117 -4.39531,1.4777 0,0 0.90755,-0.91219 2.09673,-2.04774 1.47067,-1.40433 3.37208,-3.15025 4.52039,-3.93486 4.98203,-3.40409 13.04315,-5.66192 17.82619,-1.31915 2.65626,2.41176 5.30637,6.62875 6.07715,10.19303 1.15792,5.35451 0.94732,10.89989 0.94732,10.89989 0,0 6.31005,0.90017 9.38275,1.88282 2.95242,0.94419 8.63003,3.83393 8.63003,3.83393 6.9838,3.73699 9.11007,6.14618 12.67938,10.12015 3.32323,3.69999 7.86122,12.47366 7.86122,12.47366 0,0 -10.44616,-6.77891 -16.22962,-9.17873 -6.93307,-2.87685 -14.30267,-5.04571 -21.80854,-6.11916 -6.85105,-0.97979 -13.87047,-0.54808 -20.79419,-0.23535 -7.72931,0.3491 -15.35577,1.8672 -23.07648,2.35352 -9.70185,0.61111 -28.14823,0.70606 -29.16259,0.70606 -1.01435,0 -17.45465,-1.41946 -26.11953,-2.58887 -8.76125,-1.18242 -26.11954,-4.47169 -26.11954,-4.47169 z"
           style="fill:url(#linearGradient6351);fill-opacity:1;fill-rule:evenodd;stroke:none;stroke-width:0;stroke-linecap:butt;stroke-linejoin:miter;stroke-opacity:1;stroke-miterlimit:4;stroke-dasharray:none" />
        <path
           sodipodi:nodetypes="csssssssssscsssssssssssc"
           inkscape:connector-curvature="0"
           id="path6333"
           d="m 481.82651,795.5938 c 0,0 51.2096,8.8734 69.13704,11.73574 6.38585,1.01957 12.743,2.27479 19.19094,2.87461 8.60795,0.80077 17.28473,1.1501 25.93372,0.95821 5.89943,-0.13088 11.75438,-0.98213 17.63492,-1.43731 5.44411,-0.4214 10.88337,-0.91924 16.33823,-1.19776 5.52679,-0.28219 11.06323,-0.56941 16.59759,-0.47909 5.19745,0.0848 10.42999,0.18399 15.56022,0.95819 5.0285,0.75887 10.01454,1.93319 14.78222,3.59329 2.71312,0.9447 5.37097,2.10297 7.78011,3.59328 2.95277,1.82656 5.63621,4.04969 8.03946,6.46788 1.88253,1.89426 4.9274,6.22836 4.9274,6.22836 0,0 -5.81858,-3.44655 -8.81746,-5.0306 -3.05471,-1.61354 -6.10558,-3.26292 -9.33614,-4.55147 -3.18738,-1.27134 -6.44713,-2.50045 -9.85481,-3.11417 -4.58885,-0.82647 -9.32907,-0.68633 -14.00419,-0.71866 -6.40207,-0.0443 -12.8088,0.25078 -19.19096,0.71866 -6.59506,0.48345 -13.12311,1.58181 -19.70963,2.15595 -6.12563,0.53397 -12.26015,1.17174 -18.41293,1.19777 -8.48745,0.0358 -16.99728,-0.43405 -25.41504,-1.43731 -8.82737,-1.05209 -17.5642,-2.77518 -26.19305,-4.79105 -8.50918,-1.98791 -16.79231,-4.72673 -25.15571,-7.18655 -5.02734,-1.47862 -10.07415,-2.9091 -15.04155,-4.55149 -3.14376,-1.03941 -24.79038,-5.98648 -24.79038,-5.98648 z"
           style="fill:url(#linearGradient6365);fill-opacity:1;fill-rule:evenodd;stroke:none;stroke-width:1.05767953px;stroke-linecap:butt;stroke-linejoin:miter;stroke-opacity:1" />
        <path
           sodipodi:nodetypes="csssssssssssssssccsssscsccssssssssssssssssc"
           inkscape:connector-curvature="0"
           id="path6335"
           d="m 417.39171,808.0593 c 0,0 3.08605,-0.91683 4.59695,-1.45208 2.28909,-0.81091 4.43725,-1.93243 6.76021,-2.66213 2.64064,-0.82952 5.37803,-1.4021 8.11226,-1.93611 3.66287,-0.71537 7.37329,-1.2328 11.08675,-1.69409 2.51416,-0.31233 5.03987,-0.56128 7.57144,-0.72604 2.3391,-0.15222 4.68544,-0.22448 7.03063,-0.24201 4.14709,-0.031 8.30204,-0.0219 12.43879,0.24201 2.98867,0.19072 5.97024,0.5153 8.92348,0.96806 2.45726,0.3767 4.8949,0.86805 7.30104,1.45207 2.55856,0.62103 5.0802,1.36693 7.57143,2.17811 2.46954,0.80413 4.8411,1.8348 7.30103,2.66215 2.58827,0.87052 5.25311,1.55076 7.84186,2.42012 2.91484,0.97889 5.77149,2.09136 8.65307,3.14617 3.06761,1.12292 6.06628,2.40681 9.1939,3.38818 4.253,1.33449 8.62567,2.34654 12.97961,3.38817 3.31587,0.79328 6.63755,1.58443 10.00512,2.17812 8.28811,1.55356 12.72222,2.26707 17.84695,2.66213 2.68955,0.2981 5.40592,0.35674 8.11226,0.48403 2.34205,0.11016 4.68579,0.20168 7.03063,0.24202 2.70358,0.0466 5.40816,0 8.11225,0 l 5.40819,0 5.13776,0 c 0,0 -3.08816,2.18999 -4.86736,2.90414 -1.95492,0.78468 -3.91129,1.3437 -5.94899,1.93611 -5.0624,1.5409 -10.33733,2.56182 -15.41329,3.38817 -2.5993,0.40662 -6.76022,0.96805 -7.84185,0.96805 -1.08163,0 -4.50303,0.37268 -6.7602,0.48402 -2.97136,0.14658 -5.94764,0.24084 -8.92349,0.24202 -3.06596,10e-4 -7.84186,-0.24202 -9.19389,-0.24202 -1.35205,0 -5.60201,-0.73753 -8.38267,-1.21004 -2.90074,-0.49293 -5.78133,-1.08005 -8.65308,-1.6941 -2.44532,-0.52287 -4.9085,-1.00278 -7.30103,-1.69409 -3.31325,-0.95734 -6.49258,-2.25242 -9.73471,-3.38818 -2.97704,-1.04289 -5.93943,-2.11945 -8.92348,-3.14617 -3.59418,-1.23664 -7.2109,-2.42011 -10.81635,-3.63018 -3.60544,-1.21006 -7.16915,-2.52487 -10.81634,-3.63019 -2.94386,-0.89218 -5.9119,-1.73243 -8.92348,-2.42013 -4.28224,-0.97787 -8.62665,-1.73675 -12.97962,-2.42013 -3.76664,-0.59132 -7.55437,-1.09072 -11.35715,-1.45207 -3.86357,-0.36713 -7.74724,-0.55069 -11.62758,-0.72604 -2.8821,-0.13024 -5.77086,-0.11382 -8.65307,-0.24202 -3.97031,-0.17659 -11.89798,-0.72603 -11.89798,-0.72603 z"
           style="fill:url(#linearGradient6373);fill-opacity:1;fill-rule:evenodd;stroke:none;stroke-width:1.08555388px;stroke-linecap:butt;stroke-linejoin:miter;stroke-opacity:1" />
        <path
           sodipodi:nodetypes="cssssssssssssscsssssssssssssssc"
           inkscape:connector-curvature="0"
           id="path6337"
           d="m 573.36558,839.14763 c 0,0 3.33555,0.0381 4.97479,-0.24364 1.39056,-0.23899 3.18699,-0.49254 4.54997,-0.87364 2.17658,-0.60855 3.91072,-1.4041 6.078,-2.05003 2.43558,-0.7259 4.82166,-1.6325 7.23605,-2.4364 2.71088,-0.90261 5.43772,-1.74991 8.14056,-2.68003 2.95177,-1.01578 5.92956,-2.39768 8.85966,-3.48385 2.34451,-0.8691 4.65454,-1.84577 7.00993,-2.68004 2.4691,-0.87454 4.81563,-1.58277 7.343,-2.23609 2.08474,-0.53891 4.34126,-1.00623 6.45073,-1.4185 2.86571,-0.56006 5.70923,-1.26473 8.59283,-1.70548 2.25002,-0.34391 4.51605,-0.57192 6.7838,-0.73091 2.48328,-0.17411 4.93368,0.008 7.42148,0.0729 2.87234,0.075 5.75209,0.26697 8.59282,0.73091 2.36843,0.38681 7.00993,1.70548 7.00993,1.70548 0,0 -2.86323,0.33582 -4.2964,0.48728 -1.65715,0.17512 -3.31723,0.31679 -4.9748,0.48727 -2.26226,0.23267 -4.53393,0.38588 -6.78381,0.73092 -2.04908,0.31427 -4.07181,0.80329 -6.10541,1.21821 -2.33845,0.4771 -4.70091,0.84023 -7.00994,1.46182 -1.98929,0.53554 -3.90693,1.3453 -5.8793,1.94913 -1.72344,0.52762 -3.47748,0.93421 -5.20091,1.46182 -1.97237,0.60384 -3.91234,1.32517 -5.8793,1.94913 -2.40359,0.76249 -4.83247,1.43027 -7.23606,2.19275 -1.96696,0.62397 -3.65116,1.22814 -5.65316,1.70548 -2.15447,0.51369 -4.18976,1.13361 -6.33156,1.70547 -1.71269,0.4573 -3.72646,0.95479 -5.42704,1.46184 -2.2938,0.68393 -4.65505,1.09023 -7.00993,1.46184 -2.24856,0.35483 -4.51408,0.60896 -6.78381,0.73093 -1.88205,0.10106 -3.77124,0.1037 -5.65317,0 -2.95122,-0.16265 -8.81895,-0.97457 -8.81895,-0.97457 z"
           style="fill:url(#linearGradient6381);fill-opacity:1;fill-rule:evenodd;stroke:none;stroke-width:0.9960289px;stroke-linecap:butt;stroke-linejoin:miter;stroke-opacity:1" />
        <path
           style="fill:url(#linearGradient6858);fill-rule:evenodd;stroke:none;stroke-width:0.47452226px;stroke-linecap:butt;stroke-linejoin:miter;stroke-opacity:1;fill-opacity:1"
           d="m 423.99262,802.22314 c 0,0 5.70081,-6.40355 8.74971,-9.10235 2.66503,-2.359 5.11032,-4.41778 8.05892,-6.11797 2.7349,-1.57696 5.45256,-3.23779 8.2892,-4.47656 3.45774,-1.51001 7.03231,-2.54134 10.59174,-3.58125 3.20122,-0.93524 6.42105,-1.79635 9.67073,-2.3875 3.35809,-0.61088 6.74091,-1.10617 10.13124,-1.19375 4.5333,-0.1171 9.07646,0.27166 13.58506,0.89531 3.78911,0.52413 7.55256,1.37656 11.28252,2.3875 3.33447,0.90375 6.62586,2.06793 9.90097,3.28281 3.1738,1.1773 6.36581,2.6282 9.5556,3.73048 3.4911,1.20639 6.93263,2.22239 10.47662,3.13359 2.98303,0.76697 5.98586,1.39838 8.97996,2.08906 2.60888,0.60182 5.19971,1.35997 7.82868,1.79063 2.97847,0.48792 13.35481,2.23828 13.35481,2.23828 1.25003,0.40505 -19.51711,-1.11961 -21.87425,-1.04453 -1.15094,0.0367 -12.66405,-1.19375 -13.81533,-1.19375 -1.15127,0 -7.83495,-0.70305 -11.74302,-1.19375 -3.99885,-0.5021 -7.9761,-1.26659 -11.97328,-1.79063 -3.52591,-0.46226 -7.05117,-0.99461 -10.59174,-1.19375 -2.83715,-0.15958 -5.68057,-0.0943 -8.51945,0 -2.99627,0.0995 -8.96662,0.433 -10.3615,0.59688 -4.4063,0.51768 -6.23765,0.83377 -9.349,1.33343 -3.64434,0.58526 -5.84569,1.00973 -10.91347,1.94938 -3.6352,0.67402 -5.99629,1.11745 -8.97995,1.79063 -2.77312,0.62567 -5.52613,1.3927 -8.2892,2.08906 -1.15248,0.29045 -4.62291,1.71701 -6.90766,2.68594 -2.39948,1.01758 -7.13791,3.28281 -7.13791,3.28281 z"
           id="path6842"
           inkscape:connector-curvature="0"
           sodipodi:nodetypes="cssssssssssssscssssssssssssc" />
      </g>
    </g>
    <text
       xml:space="preserve"
       style="font-style:normal;font-weight:normal;font-size:35px;line-height:125%;font-family:sans-serif;letter-spacing:0px;word-spacing:0px;fill:#000000;fill-opacity:1;stroke:none;stroke-width:1px;stroke-linecap:butt;stroke-linejoin:miter;stroke-opacity:1"
       x="186.58371"
       y="863.29968"
       id="text4192"
       sodipodi:linespacing="125%"><tspan
         sodipodi:role="line"
         id="tspan4194"
         x="186.58371"
         y="863.29968"
         style="font-style:italic;font-variant:normal;font-weight:normal;font-stretch:normal;font-size:35px;font-family:'Times New Roman';-inkscape-font-specification:'Times New Roman, Italic'">&quot;A Probe Design Tool for Fishing Hi-C Data&quot;</tspan></text>
  </g>
</svg>
